<svg width="34" height="34" viewBox="0 0 34 34" fill="none" xmlns="http://www.w3.org/2000/svg">
<path d="M4.25 17C4.25 15.3256 4.57979 13.6677 5.22054 12.1208C5.86128 10.5739 6.80044 9.16834 7.98439 7.98439C9.16834 6.80044 10.5739 5.86128 12.1208 5.22054C13.6677 4.57979 15.3256 4.25 17 4.25C18.6744 4.25 20.3323 4.57979 21.8792 5.22054C23.4261 5.86128 24.8317 6.80044 26.0156 7.98439C27.1996 9.16834 28.1387 10.5739 28.7795 12.1208C29.4202 13.6677 29.75 15.3256 29.75 17C29.75 20.3815 28.4067 23.6245 26.0156 26.0156C23.6245 28.4067 20.3815 29.75 17 29.75C13.6185 29.75 10.3755 28.4067 7.98439 26.0156C5.5933 23.6245 4.25 20.3815 4.25 17ZM17 2.125C13.0549 2.125 9.27139 3.69218 6.48179 6.48179C3.69218 9.27139 2.125 13.0549 2.125 17C2.125 20.9451 3.69218 24.7286 6.48179 27.5182C9.27139 30.3078 13.0549 31.875 17 31.875C20.9451 31.875 24.7286 30.3078 27.5182 27.5182C30.3078 24.7286 31.875 20.9451 31.875 17C31.875 13.0549 30.3078 9.27139 27.5182 6.48179C24.7286 3.69218 20.9451 2.125 17 2.125ZM14.6625 12.8605C14.5785 12.9721 14.4733 13.0661 14.353 13.1371C14.2327 13.2081 14.0996 13.2547 13.9613 13.2742C13.8229 13.2937 13.6821 13.2858 13.5468 13.2509C13.4116 13.2161 13.2845 13.1549 13.1729 13.0709C13.0613 12.9869 12.9673 12.8817 12.8963 12.7614C12.8253 12.6411 12.7787 12.508 12.7592 12.3696C12.7197 12.0903 12.7929 11.8067 12.9625 11.5812C13.274 11.1965 13.634 10.8536 14.0335 10.5612C14.6986 10.0789 15.7122 9.5625 17 9.5625C18.1272 9.5625 19.2082 10.0103 20.0052 10.8073C20.8022 11.6043 21.25 12.6853 21.25 13.8125C21.25 14.977 20.6656 15.9503 19.9963 16.7301C19.3417 17.4951 18.4875 18.2091 17.7161 18.8509L17.68 18.8806C16.8661 19.5606 16.1436 20.1663 15.6145 20.7825C15.4742 20.9454 15.3552 21.1012 15.2575 21.25H20.1875C20.4693 21.25 20.7395 21.3619 20.9388 21.5612C21.1381 21.7605 21.25 22.0307 21.25 22.3125C21.25 22.5943 21.1381 22.8645 20.9388 23.0638C20.7395 23.2631 20.4693 23.375 20.1875 23.375H13.8125C13.5307 23.375 13.2605 23.2631 13.0612 23.0638C12.8619 22.8645 12.75 22.5943 12.75 22.3125C12.75 21.148 13.3344 20.1769 14.0037 19.3991C14.6582 18.6341 15.5104 17.9244 16.2775 17.2826L16.32 17.2486C17.1339 16.5686 17.8564 15.963 18.3834 15.3468C18.9125 14.7305 19.125 14.2417 19.125 13.8125C19.125 13.2489 18.9011 12.7084 18.5026 12.3099C18.1041 11.9114 17.5636 11.6875 17 11.6875C16.2966 11.6875 15.7144 11.968 15.2851 12.2825C15.0726 12.4355 14.909 12.5906 14.8006 12.7032C14.7199 12.7882 14.6625 12.8605 14.6625 12.8605Z" fill="#9FED7E"/>
</svg>
