<svg width="34" height="34" viewBox="0 0 34 34" fill="none" xmlns="http://www.w3.org/2000/svg">
<path d="M17.0002 4.95837C13.8065 4.95837 10.7437 6.22705 8.48542 8.4853C6.22717 10.7435 4.9585 13.8064 4.9585 17C4.9585 20.1937 6.22717 23.2565 8.48542 25.5148C10.7437 27.773 13.8065 29.0417 17.0002 29.0417C20.1938 29.0417 23.2567 27.773 25.5149 25.5148C27.7732 23.2565 29.0418 20.1937 29.0418 17C29.0418 13.8064 27.7732 10.7435 25.5149 8.4853C23.2567 6.22705 20.1938 4.95837 17.0002 4.95837ZM2.8335 17C2.8335 9.17579 9.17591 2.83337 17.0002 2.83337C24.8244 2.83337 31.1668 9.17579 31.1668 17C31.1668 24.8243 24.8244 31.1667 17.0002 31.1667C9.17591 31.1667 2.8335 24.8243 2.8335 17ZM14.8752 17C14.8752 16.7182 14.9871 16.448 15.1864 16.2487C15.3856 16.0495 15.6559 15.9375 15.9377 15.9375H17.1758C18.7469 15.9375 19.8335 14.8085 19.8335 13.6355C19.8335 12.4625 18.7469 11.3334 17.1758 11.3334C16.2791 11.3334 15.5495 11.6578 15.031 11.9992C14.755 12.1807 14.5011 12.3936 14.2745 12.6339L14.2717 12.6367C14.0885 12.8442 13.8317 12.9721 13.5557 12.9932C13.2797 13.0142 13.0065 12.9267 12.794 12.7493C12.5816 12.5719 12.4467 12.3187 12.4181 12.0434C12.3896 11.7681 12.4696 11.4925 12.6411 11.2753L12.6425 11.2725L12.6467 11.2682L12.6538 11.2597L12.6751 11.2342L12.7445 11.1577C12.8012 11.0954 12.881 11.0151 12.9839 10.9169C13.1865 10.7256 13.4826 10.4749 13.8622 10.2241C14.8433 9.56809 15.9956 9.21487 17.1758 9.20837C19.7145 9.20837 21.9585 11.0925 21.9585 13.6355C21.9585 15.0167 21.2969 16.2039 20.284 17C21.2969 17.7962 21.9585 18.9834 21.9585 20.3646C21.9585 22.9075 19.7145 24.7917 17.1758 24.7917C15.9956 24.7852 14.8433 24.432 13.8622 23.776C13.4554 23.5071 13.08 23.1935 12.7431 22.841L12.6751 22.7659L12.6538 22.7404L12.6467 22.7319L12.6425 22.7276L12.6411 22.7248C12.4696 22.5076 12.3896 22.232 12.4181 21.9567C12.4467 21.6814 12.5816 21.4281 12.794 21.2508C13.0065 21.0734 13.2797 20.9859 13.5557 21.0069C13.8317 21.028 14.0885 21.1558 14.2717 21.3634L14.2745 21.3662L14.3028 21.396C14.3312 21.4281 14.3774 21.4753 14.4417 21.5376C14.5734 21.6609 14.7717 21.8309 15.031 22.0009C15.5509 22.3423 16.2777 22.6667 17.1758 22.6667C18.7469 22.6667 19.8335 21.5376 19.8335 20.3646C19.8335 19.1916 18.7469 18.0625 17.1758 18.0625H15.9377C15.6559 18.0625 15.3856 17.9506 15.1864 17.7513C14.9871 17.5521 14.8752 17.2818 14.8752 17Z" fill="#9FED7E"/>
</svg>
