<svg width="34" height="34" viewBox="0 0 34 34" fill="none" xmlns="http://www.w3.org/2000/svg">
<path d="M4.25 17C4.25 15.3256 4.57979 13.6677 5.22054 12.1208C5.86128 10.5739 6.80044 9.16834 7.98439 7.98439C9.16834 6.80044 10.5739 5.86128 12.1208 5.22054C13.6677 4.57979 15.3256 4.25 17 4.25C18.6744 4.25 20.3323 4.57979 21.8792 5.22054C23.4261 5.86128 24.8317 6.80044 26.0156 7.98439C27.1996 9.16834 28.1387 10.5739 28.7795 12.1208C29.4202 13.6677 29.75 15.3256 29.75 17C29.75 20.3815 28.4067 23.6245 26.0156 26.0156C23.6245 28.4067 20.3815 29.75 17 29.75C13.6185 29.75 10.3755 28.4067 7.98439 26.0156C5.5933 23.6245 4.25 20.3815 4.25 17ZM17 2.125C13.0549 2.125 9.27139 3.69218 6.48179 6.48179C3.69218 9.27139 2.125 13.0549 2.125 17C2.125 20.9451 3.69218 24.7286 6.48179 27.5182C9.27139 30.3078 13.0549 31.875 17 31.875C20.9451 31.875 24.7286 30.3078 27.5182 27.5182C30.3078 24.7286 31.875 20.9451 31.875 17C31.875 13.0549 30.3078 9.27139 27.5182 6.48179C24.7286 3.69218 20.9451 2.125 17 2.125ZM19.125 11.4282C19.125 9.82387 17.0212 9.22462 16.1776 10.5868L10.7738 19.3035C10.6541 19.4966 10.5882 19.7182 10.5829 19.9453C10.5776 20.1724 10.6331 20.3968 10.7436 20.5952C10.8541 20.7937 11.0156 20.959 11.2115 21.0742C11.4073 21.1893 11.6303 21.25 11.8575 21.25H17V23.375C17 23.6568 17.1119 23.927 17.3112 24.1263C17.5105 24.3256 17.7807 24.4375 18.0625 24.4375C18.3443 24.4375 18.6145 24.3256 18.8138 24.1263C19.0131 23.927 19.125 23.6568 19.125 23.375V21.25H20.1875C20.4693 21.25 20.7395 21.1381 20.9388 20.9388C21.1381 20.7395 21.25 20.4693 21.25 20.1875C21.25 19.9057 21.1381 19.6355 20.9388 19.4362C20.7395 19.2369 20.4693 19.125 20.1875 19.125H19.125V11.4282ZM17 13.2919V19.125H13.3875L17 13.2919Z" fill="#9FED7E"/>
</svg>
