<svg width="30" height="30" viewBox="0 0 30 30" fill="none" xmlns="http://www.w3.org/2000/svg">
<path d="M6.09375 3.75C4.97487 3.75 3.90181 4.19447 3.11064 4.98564C2.31947 5.77681 1.875 6.84987 1.875 7.96875V22.0312C1.875 23.1501 2.31947 24.2232 3.11064 25.0144C3.90181 25.8055 4.97487 26.25 6.09375 26.25H23.9062C25.0251 26.25 26.0982 25.8055 26.8894 25.0144C27.6805 24.2232 28.125 23.1501 28.125 22.0312V7.96875C28.125 6.84987 27.6805 5.77681 26.8894 4.98564C26.0982 4.19447 25.0251 3.75 23.9062 3.75H6.09375ZM3.75 7.96875C3.75 7.34715 3.99693 6.75101 4.43647 6.31147C4.87601 5.87193 5.47215 5.625 6.09375 5.625H23.9062C24.5279 5.625 25.124 5.87193 25.5635 6.31147C26.0031 6.75101 26.25 7.34715 26.25 7.96875V22.0312C26.25 22.6529 26.0031 23.249 25.5635 23.6885C25.124 24.1281 24.5279 24.375 23.9062 24.375H6.09375C5.47215 24.375 4.87601 24.1281 4.43647 23.6885C3.99693 23.249 3.75 22.6529 3.75 22.0312V7.96875ZM11.25 11.2509V18.75C11.2501 18.9118 11.2921 19.0708 11.3718 19.2116C11.4516 19.3523 11.5664 19.47 11.7052 19.5533C11.8439 19.6365 12.0018 19.6824 12.1635 19.6866C12.3253 19.6907 12.4853 19.6529 12.6281 19.5769L19.6575 15.8278C19.8073 15.7478 19.9325 15.6286 20.0198 15.483C20.1071 15.3373 20.1532 15.1707 20.1532 15.0009C20.1532 14.8311 20.1071 14.6645 20.0198 14.5189C19.9325 14.3733 19.8073 14.2541 19.6575 14.1741L12.6291 10.4241C12.4862 10.3478 12.3259 10.3098 12.164 10.3139C12.002 10.3179 11.8439 10.3639 11.705 10.4473C11.5661 10.5306 11.4512 10.6486 11.3714 10.7896C11.2917 10.9306 11.2499 11.0889 11.25 11.2509Z" fill="#FF486C"/>
</svg>
