<svg width="62" height="47" viewBox="0 0 62 47" fill="none" xmlns="http://www.w3.org/2000/svg">
<path fill-rule="evenodd" clip-rule="evenodd" d="M55.8009 0.191943C56.554 -0.0216273 57.3571 -0.0412482 58.1264 0.135121C58.8958 0.31149 59.6034 0.677402 60.1755 1.19477C60.7476 1.71214 61.1633 2.36205 61.3794 3.07686C61.5955 3.79167 61.604 4.54525 61.4041 5.25916L50.9946 42.3804C49.9868 45.9608 45.5088 47.6261 42.1202 45.4557C39.2857 43.64 35.084 40.859 31.3383 38.0207C29.4655 36.6001 23.7458 32.0788 24.7736 29.3686C25.6556 27.0516 36.8104 19.1246 43.2051 14.3882C45.7152 12.5271 44.7852 11.217 41.8753 12.8691C34.6492 16.9709 23.0876 23.1517 19.3005 24.8386C15.9598 26.3258 14.281 26.4694 12.3407 25.9658C8.80085 25.0479 5.55259 23.8484 2.93612 22.5203C-0.599549 20.7263 0.0502921 16.0093 3.68331 14.9783L55.8009 0.191943Z" fill="black"/>
</svg>
