<svg width="50" height="50" viewBox="0 0 50 50" fill="none" xmlns="http://www.w3.org/2000/svg">
<path d="M28.1243 15.1041C28.1232 14.7172 27.9785 14.3444 27.7183 14.058C27.4581 13.7716 27.1008 13.592 26.7158 13.5539C26.3307 13.5158 25.9452 13.6219 25.6339 13.8517C25.3226 14.0815 25.1076 14.4187 25.0306 14.7979C24.8306 15.7937 24.1889 17.1312 23.1993 18.352C22.2118 19.5729 21.0098 20.5166 19.8181 20.9145C19.4398 21.0568 19.1314 21.3401 18.9575 21.7049C18.7837 22.0698 18.758 22.4878 18.8858 22.8711C19.0136 23.2545 19.285 23.5735 19.6429 23.7611C20.0009 23.9486 20.4176 23.9902 20.8056 23.877C22.4264 23.3375 23.8577 22.2666 24.9993 21.0437V33.8541C24.9993 34.2685 25.164 34.666 25.457 34.959C25.75 35.252 26.1474 35.4166 26.5618 35.4166C26.9762 35.4166 27.3737 35.252 27.6667 34.959C27.9597 34.666 28.1243 34.2685 28.1243 33.8541V15.1041ZM24.9993 4.16663C13.4931 4.16663 4.16602 13.4937 4.16602 25C4.16602 36.5062 13.4931 45.8333 24.9993 45.8333C36.5056 45.8333 45.8327 36.5062 45.8327 25C45.8327 13.4937 36.5056 4.16663 24.9993 4.16663ZM7.29102 25C7.29102 20.3034 9.15671 15.7992 12.4777 12.4783C15.7986 9.15732 20.3028 7.29163 24.9993 7.29163C29.6959 7.29163 34.2001 9.15732 37.521 12.4783C40.842 15.7992 42.7077 20.3034 42.7077 25C42.7077 29.6965 40.842 34.2007 37.521 37.5216C34.2001 40.8426 29.6959 42.7083 24.9993 42.7083C20.3028 42.7083 15.7986 40.8426 12.4777 37.5216C9.15671 34.2007 7.29102 29.6965 7.29102 25Z" fill="url(#paint0_linear_45_1280)"/>
<defs>
<linearGradient id="paint0_linear_45_1280" x1="24.9993" y1="4.16663" x2="24.9993" y2="45.8333" gradientUnits="userSpaceOnUse">
<stop stop-color="#A8EE8A"/>
<stop offset="1" stop-color="white"/>
</linearGradient>
</defs>
</svg>
