<svg width="50" height="50" viewBox="0 0 50 50" fill="none" xmlns="http://www.w3.org/2000/svg">
<path d="M6.25 25C6.25 22.5377 6.73498 20.0995 7.67726 17.8247C8.61953 15.5498 10.0006 13.4828 11.7417 11.7417C13.4828 10.0006 15.5498 8.61953 17.8247 7.67726C20.0995 6.73498 22.5377 6.25 25 6.25C27.4623 6.25 29.9005 6.73498 32.1753 7.67726C34.4502 8.61953 36.5172 10.0006 38.2583 11.7417C39.9993 13.4828 41.3805 15.5498 42.3227 17.8247C43.265 20.0995 43.75 22.5377 43.75 25C43.75 29.9728 41.7746 34.7419 38.2583 38.2583C34.7419 41.7746 29.9728 43.75 25 43.75C20.0272 43.75 15.2581 41.7746 11.7417 38.2583C8.22544 34.7419 6.25 29.9728 6.25 25ZM25 3.125C19.1984 3.125 13.6344 5.42968 9.53204 9.53204C5.42968 13.6344 3.125 19.1984 3.125 25C3.125 30.8016 5.42968 36.3656 9.53204 40.468C13.6344 44.5703 19.1984 46.875 25 46.875C30.8016 46.875 36.3656 44.5703 40.468 40.468C44.5703 36.3656 46.875 30.8016 46.875 25C46.875 19.1984 44.5703 13.6344 40.468 9.53204C36.3656 5.42968 30.8016 3.125 25 3.125ZM21.5625 18.9125C21.439 19.0767 21.2843 19.2149 21.1074 19.3193C20.9304 19.4236 20.7347 19.4922 20.5313 19.5209C20.3278 19.5496 20.1208 19.538 19.9218 19.4867C19.7229 19.4354 19.536 19.3454 19.3719 19.2219C19.2077 19.0984 19.0695 18.9437 18.9651 18.7668C18.8607 18.5898 18.7922 18.3941 18.7635 18.1906C18.7055 17.7798 18.813 17.3628 19.0625 17.0312C19.5206 16.4654 20.05 15.9612 20.6375 15.5312C21.6156 14.8219 23.1062 14.0625 25 14.0625C26.6576 14.0625 28.2473 14.721 29.4194 15.8931C30.5915 17.0652 31.25 18.6549 31.25 20.3125C31.25 22.025 30.3906 23.4563 29.4062 24.6031C28.4437 25.7281 27.1875 26.7781 26.0531 27.7219L26 27.7656C24.8031 28.7656 23.7406 29.6562 22.9625 30.5625C22.7563 30.8021 22.5812 31.0312 22.4375 31.25H29.6875C30.1019 31.25 30.4993 31.4146 30.7924 31.7076C31.0854 32.0007 31.25 32.3981 31.25 32.8125C31.25 33.2269 31.0854 33.6243 30.7924 33.9174C30.4993 34.2104 30.1019 34.375 29.6875 34.375H20.3125C19.8981 34.375 19.5007 34.2104 19.2076 33.9174C18.9146 33.6243 18.75 33.2269 18.75 32.8125C18.75 31.1 19.6094 29.6719 20.5938 28.5281C21.5563 27.4031 22.8094 26.3594 23.9375 25.4156L24 25.3656C25.1969 24.3656 26.2594 23.475 27.0344 22.5688C27.8125 21.6625 28.125 20.9438 28.125 20.3125C28.125 19.4837 27.7958 18.6888 27.2097 18.1028C26.6237 17.5167 25.8288 17.1875 25 17.1875C23.9656 17.1875 23.1094 17.6 22.4781 18.0625C22.1656 18.2875 21.925 18.5156 21.7656 18.6813C21.6469 18.8063 21.5625 18.9125 21.5625 18.9125Z" fill="url(#paint0_linear_45_1276)"/>
<defs>
<linearGradient id="paint0_linear_45_1276" x1="25" y1="3.125" x2="25" y2="46.875" gradientUnits="userSpaceOnUse">
<stop stop-color="#A8EE8A"/>
<stop offset="1" stop-color="white"/>
</linearGradient>
</defs>
</svg>
