<svg width="50" height="50" viewBox="0 0 50 50" fill="none" xmlns="http://www.w3.org/2000/svg">
<path d="M24.9993 7.29163C20.3028 7.29163 15.7986 9.15732 12.4777 12.4783C9.15671 15.7992 7.29102 20.3034 7.29102 25C7.29102 29.6965 9.15671 34.2007 12.4777 37.5216C15.7986 40.8426 20.3028 42.7083 24.9993 42.7083C29.6959 42.7083 34.2001 40.8426 37.521 37.5216C40.842 34.2007 42.7077 29.6965 42.7077 25C42.7077 20.3034 40.842 15.7992 37.521 12.4783C34.2001 9.15732 29.6959 7.29163 24.9993 7.29163ZM4.16602 25C4.16602 13.4937 13.4931 4.16663 24.9993 4.16663C36.5056 4.16663 45.8327 13.4937 45.8327 25C45.8327 36.5062 36.5056 45.8333 24.9993 45.8333C13.4931 45.8333 4.16602 36.5062 4.16602 25ZM21.8743 25C21.8743 24.5856 22.039 24.1881 22.332 23.8951C22.625 23.6021 23.0224 23.4375 23.4368 23.4375H25.2577C27.5681 23.4375 29.166 21.777 29.166 20.052C29.166 18.327 27.5681 16.6666 25.2577 16.6666C23.9389 16.6666 22.866 17.1437 22.1035 17.6458C21.6977 17.9126 21.3243 18.2258 20.991 18.5791L20.9868 18.5833C20.7176 18.8885 20.3398 19.0765 19.934 19.1075C19.5281 19.1384 19.1263 19.0098 18.8138 18.7489C18.5014 18.488 18.3031 18.1156 18.2611 17.7107C18.2191 17.3059 18.3367 16.9006 18.5889 16.5812L18.591 16.577L18.5973 16.5708L18.6077 16.5583L18.6389 16.5208L18.741 16.4083C18.8243 16.3166 18.9417 16.1986 19.0931 16.0541C19.391 15.7729 19.8264 15.4041 20.3848 15.0354C21.8276 14.0706 23.5221 13.5512 25.2577 13.5416C28.991 13.5416 32.291 16.3125 32.291 20.052C32.291 22.0833 31.3181 23.8291 29.8285 25C31.3181 26.1708 32.291 27.9166 32.291 29.9479C32.291 33.6875 28.991 36.4583 25.2577 36.4583C23.5221 36.4487 21.8276 35.9293 20.3848 34.9645C19.7864 34.5692 19.2344 34.108 18.7389 33.5895L18.6389 33.4791L18.6077 33.4416L18.5973 33.4291L18.591 33.4229L18.5889 33.4187C18.3367 33.0993 18.2191 32.694 18.2611 32.2892C18.3031 31.8843 18.5014 31.5119 18.8138 31.251C19.1263 30.9902 19.5281 30.8615 19.934 30.8924C20.3398 30.9234 20.7176 31.1114 20.9868 31.4166L20.991 31.4208L21.0327 31.4645C21.0743 31.5118 21.1424 31.5812 21.2368 31.6729C21.4306 31.8541 21.7223 32.1041 22.1035 32.3541C22.8681 32.8562 23.9368 33.3333 25.2577 33.3333C27.5681 33.3333 29.166 31.6729 29.166 29.9479C29.166 28.2229 27.5681 26.5625 25.2577 26.5625H23.4368C23.0224 26.5625 22.625 26.3978 22.332 26.1048C22.039 25.8118 21.8743 25.4144 21.8743 25Z" fill="url(#paint0_linear_45_1272)"/>
<defs>
<linearGradient id="paint0_linear_45_1272" x1="24.9993" y1="4.16663" x2="24.9993" y2="45.8333" gradientUnits="userSpaceOnUse">
<stop stop-color="#A8EE8A"/>
<stop offset="1" stop-color="white"/>
</linearGradient>
</defs>
</svg>
