<svg width="102" height="102" viewBox="0 0 102 102" fill="none" xmlns="http://www.w3.org/2000/svg">
<path d="M51.1609 13.421C30.3171 13.421 13.4209 30.3172 13.4209 51.161C13.4209 72.0048 30.3171 88.901 51.1609 88.901C72.0047 88.901 88.9009 72.0048 88.9009 51.161C88.9009 30.3172 72.0047 13.421 51.1609 13.421ZM43.8922 19.9123C48.6741 18.7998 53.6477 18.7998 58.4296 19.9123L51.1684 24.2637L43.8922 19.9123ZM36.9858 22.3767L48.3379 29.1699V37.4463L37.8047 45.1L30.0907 42.4318L27.8753 29.0944C30.4899 26.3329 33.5748 24.0582 36.9858 22.3767ZM23.1956 35.4423L24.5466 43.5828L19.1574 48.9721C19.4756 44.2171 20.8555 39.5939 23.1956 35.4423ZM19.5423 56.5918L28.3244 47.8097L36.0234 50.4704L40.1031 63.0491L36.4423 68.9932L24.0145 68.261C21.7719 64.7024 20.2548 60.7374 19.5423 56.5918ZM28.8603 74.2164L36.046 74.6391L38.5935 80.685C34.979 79.1434 31.6824 76.9508 28.8603 74.2164ZM45.6093 82.7607L41.1409 72.1596L44.7753 66.2457H57.5012L60.9431 72.2124L57.0181 82.7041C53.2484 83.3965 49.3858 83.4156 45.6093 82.7607ZM63.8378 80.636L65.9776 74.9108L72.2802 75.3071C69.7603 77.5134 66.9103 79.3115 63.834 80.636M77.1638 69.9404L65.7512 69.2234L62.2112 63.0944L66.3135 50.4704L73.9106 47.8437L82.6361 57.3542C81.7413 61.8952 79.8745 66.1889 77.1638 69.9404ZM83.1946 49.5948L77.7601 43.6696L79.1262 35.4499C81.5668 39.7831 82.96 44.6271 83.1946 49.5948ZM74.4465 29.102L72.2236 42.4393L64.5246 45.1L53.9914 37.4463V29.1661L65.3209 22.3729C68.7385 24.0575 71.8286 26.3336 74.4465 29.102ZM41.5938 49.342L51.1609 42.3902L60.728 49.342L57.0748 60.5885H45.247L41.5938 49.342Z" fill="url(#paint0_linear_34_1782)"/>
<defs>
<linearGradient id="paint0_linear_34_1782" x1="-4.4291" y1="40.961" x2="81.2509" y2="88.901" gradientUnits="userSpaceOnUse">
<stop stop-color="white"/>
<stop offset="1" stop-color="#9FED7E"/>
</linearGradient>
</defs>
</svg>
