<svg xmlns="http://www.w3.org/2000/svg" width="1920" height="139" viewBox="0 0 1920 139" fill="none">
  <path d="M26.763 137.447C22.2119 137.447 18.3973 136.346 15.3194 134.147C12.2414 131.947 10.0995 127.999 8.8949 122.304L-16 1.55308H12.1071L29.373 98.0377H29.7745L58.8854 8.73604H68.9237C72.2702 8.73604 75.1474 9.57688 77.5566 11.2598C80.1001 12.9427 82.0399 15.9833 83.3788 20.3841L107.872 97.8436H108.274L125.539 1.55308H153.647L128.551 122.304C127.481 127.482 125.473 131.299 122.528 133.758C119.717 136.218 115.836 137.447 110.884 137.447H99.2392L69.3252 44.2626H68.9237L38.4074 137.447H26.763ZM217.71 139C207.135 139 197.767 136.865 189.602 132.594C181.572 128.193 175.282 122.11 170.73 114.345C166.314 106.45 164.105 97.3255 164.105 86.9721V52.0279C164.105 41.6745 166.314 32.6145 170.73 24.8492C175.282 16.954 181.572 10.8715 189.602 6.60055C197.767 2.19978 207.135 0 217.71 0H238.991C249.565 0 258.866 2.19978 266.897 6.60055C275.062 10.8715 281.352 16.954 285.769 24.8492C290.32 32.6145 292.595 41.6745 292.595 52.0279V86.9721C292.595 97.3255 290.32 106.45 285.769 114.345C281.352 122.11 275.062 128.193 266.897 132.594C258.866 136.865 249.565 139 238.991 139H217.71ZM238.991 115.316C246.754 115.316 252.978 112.598 257.662 107.162C262.48 101.726 264.889 94.6076 264.889 85.8073V53.1927C264.889 44.3924 262.48 37.2737 257.662 31.838C252.978 26.4022 246.754 23.6844 238.991 23.6844H217.71C209.946 23.6844 203.656 26.4022 198.838 31.838C194.154 37.2737 191.811 44.3924 191.811 53.1927V85.8073C191.811 94.6076 194.154 101.726 198.838 107.162C203.656 112.598 209.946 115.316 217.71 115.316H238.991ZM313.4 1.55308H388.085C400.265 1.55308 410.036 4.72352 417.397 11.0656C424.893 17.4078 428.64 25.7555 428.64 36.1089V49.6983C428.64 56.4287 426.632 62.317 422.617 67.3645C418.736 72.2822 413.048 76.0363 405.552 78.6243V79.0126C409.836 81.7304 413.048 84.8366 415.188 88.331C417.465 91.8254 419.673 96.6788 421.814 102.891L433.057 137.447H404.347L393.707 105.221C391.967 99.6551 389.558 95.514 386.479 92.7961C383.401 90.0782 379.587 88.7193 375.035 88.7193H341.106V137.447H313.4V1.55308ZM382.865 65.6173C388.487 65.6173 392.904 64.1941 396.116 61.3464C399.328 58.3701 400.934 54.5517 400.934 49.8925V37.2737C400.934 33.5209 399.73 30.5434 397.32 28.3436C394.911 26.014 391.699 24.8492 387.684 24.8492H341.106V65.6173H382.865ZM468.941 137.447C463.051 137.447 458.3 135.83 454.687 132.594C451.206 129.229 449.467 124.828 449.467 119.392V1.55308H477.172V114.151H553.463V137.447H468.941ZM586.968 137.447C581.214 137.447 576.528 135.764 572.915 132.399C569.301 129.035 567.494 124.634 567.494 119.198V1.55308H634.555C645.258 1.55308 654.631 3.49442 662.662 7.3771C670.818 11.2598 677.117 16.7598 681.534 23.8785C686.076 30.9971 688.36 39.2151 688.36 48.5335V86.5838C688.36 103.279 683.868 115.962 674.908 124.634C665.937 133.176 652.749 137.447 635.358 137.447H586.968ZM634.555 113.763C643.112 113.763 649.612 111.369 654.029 106.58C658.446 101.791 660.654 94.7374 660.654 85.419V49.6983C660.654 42.3212 658.17 36.4329 653.226 32.0321C648.269 27.5027 641.782 25.2374 633.752 25.2374H595.2V113.763H634.555ZM800.826 24.8492H756.256V1.55308H873.101V24.8492H828.531V137.447H800.826V24.8492ZM950.371 105.803H897.77L885.323 137.447H856.413L911.422 1.55308H923.87C932.566 1.55308 938.45 5.43576 941.537 13.2011L991.528 137.447H962.617L950.371 105.803ZM905.199 83.2835H942.943L924.271 34.3617H924.071L905.199 83.2835ZM1023.01 137.447C1017.11 137.447 1012.37 135.83 1008.76 132.594C1005.27 129.229 1003.54 124.828 1003.54 119.392V1.55308H1031.24V114.151H1107.53V137.447H1023.01ZM1141.04 137.447C1135.28 137.447 1130.6 135.764 1126.98 132.399C1123.37 129.035 1121.56 124.634 1121.56 119.198V1.55308H1228.77V24.8492H1149.27V56.2989H1222.75V79.595H1149.27V114.151H1228.77V137.447H1141.04ZM1247.63 1.55308H1272.32L1339.78 93.9609V1.55308H1366.88V137.447H1342.19L1274.73 45.0391V137.447H1247.63V1.55308ZM1426.26 24.8492H1381.69V1.55308H1498.54V24.8492H1453.97V137.447H1426.26V24.8492ZM1571.33 1.55308H1646.01C1658.18 1.55308 1667.96 4.72352 1675.32 11.0656C1682.81 17.4078 1686.56 25.7555 1686.56 36.1089V49.6983C1686.56 56.4287 1684.56 62.317 1680.54 67.3645C1676.65 72.2822 1670.97 76.0363 1663.48 78.6243V79.0126C1667.76 81.7304 1670.97 84.8366 1673.11 88.331C1675.38 91.8254 1677.59 96.6788 1679.74 102.891L1690.98 137.447H1662.27L1651.63 105.221C1649.89 99.6551 1647.48 95.514 1644.4 92.7961C1641.32 90.0782 1637.5 88.7193 1632.96 88.7193H1599.03V137.447H1571.33V1.55308ZM1640.79 65.6173C1646.41 65.6173 1650.83 64.1941 1654.04 61.3464C1657.25 58.3701 1658.86 54.5517 1658.86 49.8925V37.2737C1658.86 33.5209 1657.65 30.5434 1655.24 28.3436C1652.84 26.014 1649.62 24.8492 1645.61 24.8492H1599.03V65.6173H1640.79ZM1789.7 105.803H1737.09L1724.65 137.447H1695.74L1750.75 1.55308H1763.19C1771.9 1.55308 1777.79 5.43576 1780.86 13.2011L1830.85 137.447H1801.94L1789.7 105.803ZM1744.52 83.2835H1782.27L1763.6 34.3617H1763.39L1744.52 83.2835ZM1862.33 137.447C1856.59 137.447 1851.89 135.764 1848.28 132.399C1844.67 129.035 1842.86 124.634 1842.86 119.198V1.55308H1909.92C1920.63 1.55308 1929.99 3.49442 1938.02 7.3771C1946.19 11.2598 1952.48 16.7598 1956.89 23.8785C1961.45 30.9971 1963.72 39.2151 1963.72 48.5335V86.5838C1963.72 103.279 1959.24 115.962 1950.27 124.634C1941.31 133.176 1928.12 137.447 1910.72 137.447H1862.33ZM1909.92 113.763C1918.49 113.763 1924.97 111.369 1929.39 106.58C1933.81 101.791 1936.02 94.7374 1936.02 85.419V49.6983C1936.02 42.3212 1933.54 36.4329 1928.59 32.0321C1923.64 27.5027 1917.14 25.2374 1909.11 25.2374H1870.57V113.763H1909.92ZM2063.01 105.803H2010.41L1997.96 137.447H1969.05L2024.06 1.55308H2036.51C2045.21 1.55308 2051.09 5.43576 2054.18 13.2011L2104.17 137.447H2075.26L2063.01 105.803ZM2017.84 83.2835H2055.58L2036.91 34.3617H2036.71L2017.84 83.2835ZM2117.34 1.55308H2192.03C2204.21 1.55308 2213.99 4.72352 2221.34 11.0656C2228.84 17.4078 2232.58 25.7555 2232.58 36.1089V49.6983C2232.58 56.4287 2230.58 62.317 2226.56 67.3645C2222.68 72.2822 2217 76.0363 2209.5 78.6243V79.0126C2213.79 81.7304 2217 84.8366 2219.13 88.331C2221.42 91.8254 2223.62 96.6788 2225.76 102.891L2237 137.447H2208.29L2197.65 105.221C2195.92 99.6551 2193.51 95.514 2190.42 92.7961C2187.35 90.0782 2183.53 88.7193 2178.98 88.7193H2145.05V137.447H2117.34V1.55308ZM2186.81 65.6173C2192.43 65.6173 2196.85 64.1941 2200.06 61.3464C2203.27 58.3701 2204.88 54.5517 2204.88 49.8925V37.2737C2204.88 33.5209 2203.67 30.5434 2201.26 28.3436C2198.85 26.014 2195.64 24.8492 2191.63 24.8492H2145.05V65.6173H2186.81Z" fill="#E8F8E2"/>
</svg>