<svg width="333" height="60" viewBox="0 0 333 60" fill="none" xmlns="http://www.w3.org/2000/svg">
<g clip-path="url(#clip0_34_1772)">
<path d="M77.6475 37.8689C77.1217 37.8689 76.681 37.7415 76.3254 37.4867C75.9698 37.232 75.7223 36.7747 75.5832 36.1153L72.707 22.1311H75.9543L77.949 33.305H77.9954L81.3587 22.963H82.5184C82.905 22.963 83.2374 23.0603 83.5158 23.2552C83.8096 23.4501 84.0337 23.8023 84.1884 24.3119L87.0182 33.2825H87.0646L89.0593 22.1311H92.3066L89.4072 36.1153C89.2836 36.7149 89.0516 37.1569 88.7114 37.4418C88.3867 37.7266 87.9383 37.8689 87.3661 37.8689H86.0208L82.5648 27.0773H82.5184L78.9928 37.8689H77.6475ZM99.7079 38.0488C98.4862 38.0488 97.4039 37.8015 96.4606 37.3069C95.5328 36.7972 94.8061 36.0928 94.2803 35.1935C93.77 34.2792 93.5149 33.2225 93.5149 32.0235V27.9766C93.5149 26.7775 93.77 25.7283 94.2803 24.829C94.8061 23.9147 95.5328 23.2103 96.4606 22.7156C97.4039 22.206 98.4862 21.9512 99.7079 21.9512H102.166C103.388 21.9512 104.463 22.206 105.391 22.7156C106.334 23.2103 107.061 23.9147 107.571 24.829C108.097 25.7283 108.359 26.7775 108.359 27.9766V32.0235C108.359 33.2225 108.097 34.2792 107.571 35.1935C107.061 36.0928 106.334 36.7972 105.391 37.3069C104.463 37.8015 103.388 38.0488 102.166 38.0488H99.7079ZM102.166 35.3059C103.063 35.3059 103.782 34.9912 104.324 34.3616C104.88 33.7321 105.159 32.9077 105.159 31.8886V28.1115C105.159 27.0923 104.88 26.2679 104.324 25.6384C103.782 25.0089 103.063 24.6941 102.166 24.6941H99.7079C98.8109 24.6941 98.0842 25.0089 97.5276 25.6384C96.9864 26.2679 96.7157 27.0923 96.7157 28.1115V31.8886C96.7157 32.9077 96.9864 33.7321 97.5276 34.3616C98.0842 34.9912 98.8109 35.3059 99.7079 35.3059H102.166ZM110.763 22.1311H119.392C120.799 22.1311 121.928 22.4983 122.778 23.2327C123.644 23.9672 124.077 24.934 124.077 26.133V27.7068C124.077 28.4862 123.845 29.1682 123.381 29.7527C122.933 30.3222 122.276 30.757 121.41 31.0567V31.1017C121.904 31.4164 122.276 31.7761 122.523 32.1808C122.786 32.5855 123.041 33.1476 123.288 33.867L124.587 37.8689H121.27L120.041 34.1368C119.84 33.4923 119.562 33.0127 119.206 32.6979C118.85 32.3832 118.41 32.2258 117.884 32.2258H113.964V37.8689H110.763V22.1311ZM118.789 29.5504C119.438 29.5504 119.948 29.3855 120.319 29.0557C120.691 28.7111 120.876 28.2689 120.876 27.7293V26.2679C120.876 25.8333 120.737 25.4885 120.459 25.2337C120.18 24.9639 119.809 24.829 119.345 24.829H113.964V29.5504H118.789ZM128.733 37.8689C128.053 37.8689 127.504 37.6816 127.086 37.3069C126.684 36.9172 126.483 36.4076 126.483 35.778V22.1311H129.684V35.171H138.498V37.8689H128.733ZM142.369 37.8689C141.704 37.8689 141.163 37.674 140.745 37.2844C140.328 36.8947 140.119 36.3851 140.119 35.7556V22.1311H147.867C149.103 22.1311 150.186 22.3559 151.114 22.8056C152.056 23.2552 152.784 23.8922 153.294 24.7166C153.819 25.541 154.083 26.4927 154.083 27.5719V31.9785C154.083 33.912 153.564 35.3808 152.529 36.3851C151.492 37.3743 149.969 37.8689 147.959 37.8689H142.369ZM147.867 35.1261C148.855 35.1261 149.606 34.8488 150.116 34.2942C150.627 33.7396 150.882 32.9228 150.882 31.8436V27.7068C150.882 26.8524 150.595 26.1705 150.024 25.6609C149.451 25.1363 148.702 24.874 147.774 24.874H143.32V35.1261H147.867ZM167.076 24.829H161.927V22.1311H175.426V24.829H170.277V37.8689H167.076V24.829ZM184.353 34.2043H178.276L176.838 37.8689H173.498L179.854 22.1311H181.292C182.296 22.1311 182.976 22.5807 183.333 23.4801L189.108 37.8689H185.768L184.353 34.2043ZM179.135 31.5963H183.495L181.338 25.9307H181.315L179.135 31.5963ZM192.745 37.8689C192.064 37.8689 191.516 37.6816 191.099 37.3069C190.696 36.9172 190.496 36.4076 190.496 35.778V22.1311H193.696V35.171H202.51V37.8689H192.745ZM206.381 37.8689C205.716 37.8689 205.175 37.674 204.757 37.2844C204.34 36.8947 204.131 36.3851 204.131 35.7556V22.1311H216.517V24.829H207.332V28.4712H215.821V31.1691H207.332V35.171H216.517V37.8689H206.381ZM218.696 22.1311H221.549L229.342 32.8328V22.1311H232.474V37.8689H229.621L221.827 27.1672V37.8689H218.696V22.1311ZM239.334 24.829H234.184V22.1311H247.684V24.829H242.534V37.8689H239.334V24.829ZM256.093 22.1311H264.722C266.128 22.1311 267.257 22.4983 268.108 23.2327C268.973 23.9672 269.407 24.934 269.407 26.133V27.7068C269.407 28.4862 269.175 29.1682 268.711 29.7527C268.262 30.3222 267.605 30.757 266.74 31.0567V31.1017C267.234 31.4164 267.605 31.7761 267.853 32.1808C268.115 32.5855 268.37 33.1476 268.618 33.867L269.917 37.8689H266.6L265.371 34.1368C265.17 33.4923 264.891 33.0127 264.536 32.6979C264.179 32.3832 263.739 32.2258 263.214 32.2258H259.294V37.8689H256.093V22.1311ZM264.119 29.5504C264.768 29.5504 265.278 29.3855 265.649 29.0557C266.021 28.7111 266.206 28.2689 266.206 27.7293V26.2679C266.206 25.8333 266.067 25.4885 265.789 25.2337C265.51 24.9639 265.139 24.829 264.675 24.829H259.294V29.5504H264.119ZM281.322 34.2043H275.245L273.807 37.8689H270.467L276.822 22.1311H278.26C279.266 22.1311 279.946 22.5807 280.301 23.4801L286.077 37.8689H282.737L281.322 34.2043ZM276.103 31.5963H280.464L278.306 25.9307H278.283L276.103 31.5963ZM289.714 37.8689C289.05 37.8689 288.508 37.674 288.09 37.2844C287.673 36.8947 287.464 36.3851 287.464 35.7556V22.1311H295.211C296.449 22.1311 297.531 22.3559 298.458 22.8056C299.402 23.2552 300.128 23.8922 300.639 24.7166C301.165 25.541 301.427 26.4927 301.427 27.5719V31.9785C301.427 33.912 300.91 35.3808 299.873 36.3851C298.838 37.3743 297.315 37.8689 295.304 37.8689H289.714ZM295.211 35.1261C296.201 35.1261 296.951 34.8488 297.461 34.2942C297.971 33.7396 298.226 32.9228 298.226 31.8436V27.7068C298.226 26.8524 297.941 26.1705 297.368 25.6609C296.797 25.1363 296.046 24.874 295.118 24.874H290.665V35.1261H295.211ZM312.898 34.2043H306.821L305.383 37.8689H302.043L308.399 22.1311H309.837C310.841 22.1311 311.521 22.5807 311.878 23.4801L317.653 37.8689H314.313L312.898 34.2043ZM307.68 31.5963H312.04L309.883 25.9307H309.86L307.68 31.5963ZM319.176 22.1311H327.804C329.212 22.1311 330.341 22.4983 331.19 23.2327C332.057 23.9672 332.489 24.934 332.489 26.133V27.7068C332.489 28.4862 332.257 29.1682 331.793 29.7527C331.346 30.3222 330.689 30.757 329.822 31.0567V31.1017C330.318 31.4164 330.689 31.7761 330.935 32.1808C331.199 32.5855 331.454 33.1476 331.701 33.867L333 37.8689H329.683L328.453 34.1368C328.253 33.4923 327.975 33.0127 327.618 32.6979C327.263 32.3832 326.823 32.2258 326.296 32.2258H322.376V37.8689H319.176V22.1311ZM327.201 29.5504C327.85 29.5504 328.361 29.3855 328.732 29.0557C329.103 28.7111 329.288 28.2689 329.288 27.7293V26.2679C329.288 25.8333 329.149 25.4885 328.871 25.2337C328.593 24.9639 328.221 24.829 327.758 24.829H322.376V29.5504H327.201Z" fill="#102619"/>
<path d="M37.4612 53.4402C37.5575 52.8631 38.6641 50.9952 39.2055 50.1335C39.2055 50.1335 39.4685 49.5183 39.2055 49.1715C38.9423 48.8246 36.4388 45.6443 35.4163 44.5421L31.3865 39.8526C30.1836 38.6501 30.6048 37.628 30.9655 37.2673C32.3609 35.1028 34.2763 33.7222 33.982 33.3509C33.6879 32.9797 35.606 31.427 35.606 31.427C34.9444 31.1264 35.3053 30.9461 34.9444 30.7055C34.5064 30.4137 34.9953 30.233 34.7548 30.0525C34.5622 29.9082 34.6256 29.5475 34.7548 29.2709C34.8837 28.9945 36.0058 28.6818 36.6793 28.2489C37.353 27.816 38.9248 25.8641 39.6264 24.9421L39.3859 24.7017C38.7604 22.3449 38.5238 19.8719 38.4838 18.9299C38.5639 18.8097 38.4269 18.7578 37.6417 19.8318C36.4785 21.4225 35.0831 21.4225 34.454 21.6218C34.0594 21.7468 30.6648 22.5774 29.6424 22.5975C29.101 23.4992 26.996 23.9201 26.6953 23.9802C26.3946 24.0404 26.0336 24.9421 25.6127 24.9421C25.2759 24.9421 25.0313 24.5413 24.951 24.341C24.6143 24.2928 24.6103 23.88 24.6503 23.6797L26.0336 22.2366H25.372C25.2116 22.2967 24.7706 22.5253 24.2894 22.9582C23.688 23.4992 23.6279 23.1986 23.7482 22.9582C23.8684 22.7176 24.8308 21.936 25.372 21.395C25.9134 20.8538 28.1989 21.5151 29.4017 21.0342C30.3641 20.6494 33.6324 19.6016 33.8871 19.4299C36.4734 17.6864 35.6569 18.5091 36.0177 17.8477C36.3786 17.1863 37.2808 13.136 37.6417 12.655C38.0026 12.174 38.3634 11.9557 38.1229 11.0539C37.9303 10.3324 37.5908 9.41053 37.1096 9.19008C35.1757 9.84307 35.0555 9.47066 35.1757 9.19008C35.272 8.7572 34.4852 8.66978 34.454 8.40849C34.4228 8.14721 34.8269 8.02371 34.6344 7.92751C34.442 7.83132 34.1933 7.68702 34.0931 7.62691L34.2134 6.84531C33.6359 6.9896 33.5317 6.78519 33.5517 6.66495C33.8016 6.17559 34.2736 5.47086 33.9127 4.92139C33.5517 4.37192 33.7924 3.23797 34.0931 2.87723C34.3336 2.58863 33.962 2.84883 33.8618 2.6885C33.2695 2.80039 33.0397 2.88891 33.1401 2.80875C33.0197 2.08728 35.8806 -0.54604 38.4719 0.101557C39.6679 0.400448 41.0633 1.49638 41.3105 2.87723C41.0633 5.4816 40.8293 4.81681 40.4083 6.07939C40.0716 7.08945 40.1521 7.70745 40.4083 8.28825C40.6646 8.86904 42.4632 9.54705 43.5358 10.633C46.5124 13.6463 46.7836 17.6072 47.325 20.7937C47.758 23.3429 48.5881 24.9822 48.9488 25.4833C50.1519 27.0224 51.3811 30.9566 51.6648 31.9681C51.9483 32.9797 51.03 31.9681 51.4148 33.5397C51.7997 35.1113 52.4465 39.6037 52.5067 40.265C52.5548 40.7941 53.0187 41.9368 53.2192 42.0771C56.046 42.6783 57.7902 43.6402 59.7149 45.985C61.2546 47.8608 62.9902 49.3623 63.925 49.5322C66.0421 49.9171 66.7776 50.6502 67.1763 51.3117C67.5749 51.973 63.4438 57.7089 63.4438 57.7089C62.2209 58.1498 59.6427 58.7671 59.1133 57.7089C58.5842 56.6507 58.8929 56.1858 59.1133 56.0855C59.9153 56.1056 61.4711 56.0255 61.2786 55.5445C61.0862 55.0635 61.1182 52.418 61.1583 51.1556L59.4142 49.8929C57.6298 48.931 53.9373 46.7268 53.0388 46.1653C52.0267 45.5331 50.0765 45.4323 49.4902 44.7825C48.9038 44.1328 47.7828 41.8365 47.4419 40.9948C47.4419 40.9948 46.6446 41.1493 46.4829 40.9948C46.3213 40.8404 44.7267 38.1451 44.4381 37.8083C44.1493 37.4716 43.8766 37.5479 43.7764 37.628C43.7764 37.628 42.2592 39.7545 42.0322 39.612C41.8052 39.4696 38.7724 37.123 38.2431 37.2673C37.7138 37.4116 36.7795 38.4897 36.3786 39.0108C38.4236 40.8746 39.7467 43.52 40.4684 45.5641C41.0458 47.1995 42.1926 49.1314 42.6938 49.8929C44.4519 50.5146 45.1598 52.358 45.1598 52.6586C45.1598 52.9592 43.4757 54.1617 42.6938 54.0414C42.0683 53.9453 39.9071 55.1236 38.9048 55.7248C37.7419 56.0456 35.296 56.4944 34.8148 55.7248C34.3336 54.9553 34.7747 54.5625 35.0553 54.4623C35.8173 54.3621 37.365 54.0174 37.4612 53.4402Z" fill="#102619"/>
<path d="M0 58.5486C0 57.7377 0.660179 57.084 1.46583 57.0973L156.878 59.6529C156.972 59.6545 157.048 59.7316 157.048 59.8264C157.048 59.9223 156.971 60 156.875 60H1.44226C0.64572 60 0 59.3501 0 58.5486Z" fill="#102619"/>
<path d="M5.08952 20.4878C7.90038 20.4878 10.179 18.1946 10.179 15.3658C10.179 12.5371 7.90038 10.2439 5.08952 10.2439C2.27866 10.2439 0 12.5371 0 15.3658C0 18.1946 2.27866 20.4878 5.08952 20.4878Z" fill="#102619"/>
</g>
<defs>
<clipPath id="clip0_34_1772">
<rect width="333" height="60" fill="white"/>
</clipPath>
</defs>
</svg>
