<svg width="34" height="34" viewBox="0 0 34 34" fill="none" xmlns="http://www.w3.org/2000/svg">
<path d="M19.1252 10.2709C19.1244 10.0077 19.026 9.75427 18.849 9.55953C18.6721 9.36478 18.4292 9.24262 18.1673 9.2167C17.9055 9.19078 17.6433 9.26295 17.4316 9.41922C17.2199 9.57549 17.0738 9.80476 17.0214 10.0626C16.8854 10.7398 16.4491 11.6493 15.7762 12.4795C15.1047 13.3096 14.2872 13.9514 13.4769 14.222C13.2197 14.3187 13.01 14.5113 12.8917 14.7594C12.7735 15.0075 12.756 15.2917 12.8429 15.5524C12.9298 15.8132 13.1144 16.0301 13.3578 16.1576C13.6012 16.2851 13.8846 16.3134 14.1484 16.2365C15.2506 15.8695 16.2238 15.1414 17.0002 14.3098V23.0209C17.0002 23.3027 17.1121 23.5729 17.3114 23.7722C17.5106 23.9714 17.7809 24.0834 18.0627 24.0834C18.3445 24.0834 18.6147 23.9714 18.814 23.7722C19.0132 23.5729 19.1252 23.3027 19.1252 23.0209V10.2709ZM17.0002 2.83337C9.17591 2.83337 2.8335 9.17579 2.8335 17C2.8335 24.8243 9.17591 31.1667 17.0002 31.1667C24.8244 31.1667 31.1668 24.8243 31.1668 17C31.1668 9.17579 24.8244 2.83337 17.0002 2.83337ZM4.9585 17C4.9585 13.8064 6.22717 10.7435 8.48542 8.4853C10.7437 6.22705 13.8065 4.95837 17.0002 4.95837C20.1938 4.95837 23.2567 6.22705 25.5149 8.4853C27.7732 10.7435 29.0418 13.8064 29.0418 17C29.0418 20.1937 27.7732 23.2565 25.5149 25.5148C23.2567 27.773 20.1938 29.0417 17.0002 29.0417C13.8065 29.0417 10.7437 27.773 8.48542 25.5148C6.22717 23.2565 4.9585 20.1937 4.9585 17Z" fill="#9FED7E"/>
</svg>
