<svg width="31" height="31" viewBox="0 0 31 31" fill="none" xmlns="http://www.w3.org/2000/svg">
<path d="M4.6499 8.52502C4.6499 7.49731 5.05816 6.51169 5.78486 5.78499C6.51157 5.05828 7.49719 4.65002 8.5249 4.65002H22.4749C23.5026 4.65002 24.4882 5.05828 25.2149 5.78499C25.9416 6.51169 26.3499 7.49731 26.3499 8.52502V11.8219C25.6569 11.3392 24.8608 11.025 24.0249 10.9043V8.52502C24.0249 8.11394 23.8616 7.71969 23.5709 7.42901C23.2802 7.13833 22.886 6.97502 22.4749 6.97502H8.5249C8.11382 6.97502 7.71957 7.13833 7.42889 7.42901C7.13821 7.71969 6.9749 8.11394 6.9749 8.52502V22.475C6.9749 22.8861 7.13821 23.2804 7.42889 23.571C7.71957 23.8617 8.11382 24.025 8.5249 24.025H15.5046L15.4999 24.211V24.707C15.502 25.2847 15.5846 25.8323 15.7479 26.35H8.5249C7.49719 26.35 6.51157 25.9418 5.78486 25.2151C5.05816 24.4884 4.6499 23.5027 4.6499 22.475V8.52502ZM28.7772 22.52C28.3727 22.0643 27.7682 21.7 27.0474 21.7H19.4524C18.7317 21.7 18.1272 22.0643 17.7226 22.52C17.3196 22.971 17.0499 23.5833 17.0499 24.211V24.707C17.0499 27.2397 19.5811 29.45 23.2499 29.45C25.1719 29.45 26.7839 28.8424 27.8813 27.9H23.2499V26.35H29.0795C29.3085 25.8645 29.4341 25.3367 29.4484 24.8H23.2499V23.25H29.2438C29.1277 22.984 28.9692 22.7377 28.7772 22.52ZM23.2499 20.15C22.5894 20.15 21.9398 19.9812 21.3629 19.6595C20.786 19.3379 20.3009 18.8741 19.9536 18.3122C19.6064 17.7504 19.4085 17.1091 19.3788 16.4492C19.3491 15.7893 19.4886 15.1329 19.784 14.5421C20.0794 13.9513 20.5209 13.4458 21.0666 13.0737C21.6123 12.7015 22.2441 12.475 22.9019 12.4157C23.5598 12.3564 24.2219 12.4662 24.8253 12.7347C25.4288 13.0033 25.9536 13.4216 26.3499 13.95H23.2499V15.5H27.0474C27.1518 16.0114 27.1518 16.5386 27.0474 17.05H23.2499V18.6H26.3499C25.6431 19.5409 24.5178 20.15 23.2499 20.15Z" fill="#FF486C"/>
</svg>
