<svg width="32" height="32" viewBox="0 0 32 32" fill="none" xmlns="http://www.w3.org/2000/svg">
<path d="M17.8571 13.25C17.8571 13.0069 17.955 12.7737 18.1291 12.6018C18.3033 12.4299 18.5394 12.3333 18.7857 12.3333H24.3571C24.6034 12.3333 24.8396 12.4299 25.0137 12.6018C25.1879 12.7737 25.2857 13.0069 25.2857 13.25C25.2857 13.4931 25.1879 13.7263 25.0137 13.8982C24.8396 14.0701 24.6034 14.1667 24.3571 14.1667H18.7857C18.5394 14.1667 18.3033 14.0701 18.1291 13.8982C17.955 13.7263 17.8571 13.4931 17.8571 13.25ZM18.7857 16.9167C18.5394 16.9167 18.3033 17.0132 18.1291 17.1852C17.955 17.3571 17.8571 17.5902 17.8571 17.8333C17.8571 18.0764 17.955 18.3096 18.1291 18.4815C18.3033 18.6534 18.5394 18.75 18.7857 18.75H24.3571C24.6034 18.75 24.8396 18.6534 25.0137 18.4815C25.1879 18.3096 25.2857 18.0764 25.2857 17.8333C25.2857 17.5902 25.1879 17.3571 25.0137 17.1852C24.8396 17.0132 24.6034 16.9167 24.3571 16.9167H18.7857ZM13.2143 13.25C13.2143 13.7362 13.0186 14.2025 12.6703 14.5464C12.3221 14.8902 11.8497 15.0833 11.3571 15.0833C10.8646 15.0833 10.3922 14.8902 10.0439 14.5464C9.69566 14.2025 9.5 13.7362 9.5 13.25C9.5 12.7638 9.69566 12.2975 10.0439 11.9536C10.3922 11.6098 10.8646 11.4167 11.3571 11.4167C11.8497 11.4167 12.3221 11.6098 12.6703 11.9536C13.0186 12.2975 13.2143 12.7638 13.2143 13.25ZM7.64286 17.375C7.64286 17.0103 7.7896 16.6606 8.05082 16.4027C8.31203 16.1449 8.66631 16 9.03571 16H13.6786C14.048 16 14.4023 16.1449 14.6635 16.4027C14.9247 16.6606 15.0714 17.0103 15.0714 17.375C15.0714 17.375 15.0714 20.5833 11.3571 20.5833C7.64286 20.5833 7.64286 17.375 7.64286 17.375ZM3 7.97917C3 7.18904 3.31795 6.43128 3.88391 5.87258C4.44987 5.31388 5.21747 5 6.01786 5H25.9821C26.7825 5 27.5501 5.31388 28.1161 5.87258C28.682 6.43128 29 7.18904 29 7.97917V24.0208C29 24.4121 28.9219 24.7995 28.7703 25.1609C28.6186 25.5224 28.3963 25.8508 28.1161 26.1274C27.8359 26.4041 27.5032 26.6235 27.137 26.7732C26.7709 26.9229 26.3785 27 25.9821 27H6.01786C5.62155 27 5.22912 26.9229 4.86297 26.7732C4.49683 26.6235 4.16414 26.4041 3.88391 26.1274C3.60368 25.8508 3.38138 25.5224 3.22972 25.1609C3.07806 24.7995 3 24.4121 3 24.0208V7.97917ZM6.01786 6.83333C5.37714 6.83333 4.85714 7.34667 4.85714 7.97917V24.0208C4.85714 24.6533 5.37714 25.1667 6.01786 25.1667H25.9821C26.6229 25.1667 27.1429 24.6533 27.1429 24.0208V7.97917C27.1429 7.34667 26.6229 6.83333 25.9821 6.83333H6.01786Z" fill="#FF486C"/>
</svg>
